<mxfile host="app.diagrams.net" agent="Mozilla/5.0 (Windows NT 10.0; Win64; x64) AppleWebKit/537.36 (KHTML, like Gecko) Chrome/128.0.0.0 Safari/537.36 Edg/128.0.0.0" version="24.7.13">
  <diagram name="Page-1" id="75f5sHzMpFJuK_Ih6Fgd">
    <mxGraphModel dx="2455" dy="924" grid="1" gridSize="10" guides="1" tooltips="1" connect="1" arrows="1" fold="1" page="1" pageScale="1" pageWidth="850" pageHeight="1100" math="0" shadow="0">
      <root>
        <mxCell id="0" />
        <mxCell id="1" parent="0" />
        <mxCell id="6NmYGi3LzHl2FKcs8JOB-6" value="&lt;font face=&quot;Tahoma&quot; style=&quot;font-size: 14px;&quot;&gt;Supplicant&lt;/font&gt;" style="rounded=1;whiteSpace=wrap;html=1;fillColor=#60a917;fontColor=#ffffff;strokeColor=#2D7600;" parent="1" vertex="1">
          <mxGeometry x="40" y="60" width="120" height="60" as="geometry" />
        </mxCell>
        <mxCell id="6NmYGi3LzHl2FKcs8JOB-8" value="&lt;font style=&quot;font-size: 14px;&quot;&gt;Authenticator&lt;/font&gt;" style="rounded=1;whiteSpace=wrap;html=1;fillColor=#fa6800;fontColor=#000000;strokeColor=#C73500;fontFamily=Tahoma;" parent="1" vertex="1">
          <mxGeometry x="365" y="60" width="120" height="60" as="geometry" />
        </mxCell>
        <mxCell id="6NmYGi3LzHl2FKcs8JOB-9" value="&lt;font style=&quot;font-size: 15px;&quot;&gt;Supplicant&lt;/font&gt;" style="rounded=1;whiteSpace=wrap;html=1;fontFamily=Tahoma;fillColor=#60a917;fontColor=#ffffff;strokeColor=#2D7600;" parent="1" vertex="1">
          <mxGeometry x="30" y="780" width="130" height="60" as="geometry" />
        </mxCell>
        <mxCell id="6NmYGi3LzHl2FKcs8JOB-10" value="&lt;font style=&quot;font-size: 15px;&quot;&gt;Authenticator&lt;/font&gt;" style="rounded=1;whiteSpace=wrap;html=1;fontFamily=Tahoma;fillColor=#fa6800;fontColor=#000000;strokeColor=#C73500;" parent="1" vertex="1">
          <mxGeometry x="360" y="800" width="125" height="70" as="geometry" />
        </mxCell>
        <mxCell id="6NmYGi3LzHl2FKcs8JOB-13" value="" style="endArrow=none;html=1;rounded=0;entryX=0.5;entryY=1;entryDx=0;entryDy=0;exitX=0.5;exitY=0;exitDx=0;exitDy=0;targetPerimeterSpacing=0;shadow=1;" parent="1" source="6NmYGi3LzHl2FKcs8JOB-9" target="6NmYGi3LzHl2FKcs8JOB-6" edge="1">
          <mxGeometry width="50" height="50" relative="1" as="geometry">
            <mxPoint x="60" y="250" as="sourcePoint" />
            <mxPoint x="110" y="200" as="targetPoint" />
          </mxGeometry>
        </mxCell>
        <mxCell id="6NmYGi3LzHl2FKcs8JOB-14" value="" style="endArrow=none;html=1;rounded=0;exitX=0.5;exitY=0;exitDx=0;exitDy=0;entryX=0.5;entryY=1;entryDx=0;entryDy=0;shadow=1;" parent="1" source="6NmYGi3LzHl2FKcs8JOB-10" target="6NmYGi3LzHl2FKcs8JOB-8" edge="1">
          <mxGeometry width="50" height="50" relative="1" as="geometry">
            <mxPoint x="424.58000000000004" y="570" as="sourcePoint" />
            <mxPoint x="425" y="180" as="targetPoint" />
          </mxGeometry>
        </mxCell>
        <mxCell id="6NmYGi3LzHl2FKcs8JOB-16" value="&lt;font style=&quot;font-size: 14px;&quot;&gt;Cisco ISE&lt;/font&gt;&lt;div&gt;&lt;font style=&quot;font-size: 14px;&quot;&gt;( Authentication Server)&lt;/font&gt;&lt;/div&gt;" style="rounded=1;whiteSpace=wrap;html=1;fillColor=#1ba1e2;fontColor=#ffffff;strokeColor=#006EAF;fontFamily=Tahoma;" parent="1" vertex="1">
          <mxGeometry x="680" y="60" width="150" height="60" as="geometry" />
        </mxCell>
        <mxCell id="6NmYGi3LzHl2FKcs8JOB-17" value="&lt;font style=&quot;font-size: 15px;&quot;&gt;Cisco ISE&lt;/font&gt;&lt;div&gt;&lt;font style=&quot;font-size: 15px;&quot;&gt;&lt;span style=&quot;font-size: 14px;&quot;&gt;( Authentication Server)&lt;/span&gt;&lt;br&gt;&lt;/font&gt;&lt;/div&gt;" style="rounded=1;whiteSpace=wrap;html=1;fontFamily=Tahoma;fillColor=#1ba1e2;fontColor=#ffffff;strokeColor=#006EAF;" parent="1" vertex="1">
          <mxGeometry x="680" y="800" width="150" height="70" as="geometry" />
        </mxCell>
        <mxCell id="6NmYGi3LzHl2FKcs8JOB-18" value="" style="endArrow=none;html=1;rounded=0;entryX=0.5;entryY=1;entryDx=0;entryDy=0;exitX=0.5;exitY=0;exitDx=0;exitDy=0;shadow=1;" parent="1" source="6NmYGi3LzHl2FKcs8JOB-17" target="6NmYGi3LzHl2FKcs8JOB-16" edge="1">
          <mxGeometry width="50" height="50" relative="1" as="geometry">
            <mxPoint x="739.5799999999999" y="570" as="sourcePoint" />
            <mxPoint x="739.5799999999999" y="150" as="targetPoint" />
          </mxGeometry>
        </mxCell>
        <mxCell id="6NmYGi3LzHl2FKcs8JOB-19" value="" style="endArrow=classic;html=1;rounded=0;fillColor=#60a917;strokeColor=#2D7600;flowAnimation=1;shadow=1;" parent="1" edge="1">
          <mxGeometry width="50" height="50" relative="1" as="geometry">
            <mxPoint x="100" y="170" as="sourcePoint" />
            <mxPoint x="420" y="170" as="targetPoint" />
          </mxGeometry>
        </mxCell>
        <mxCell id="6NmYGi3LzHl2FKcs8JOB-20" value="" style="endArrow=classic;html=1;rounded=0;fillColor=#fa6800;flowAnimation=1;strokeColor=#C73500;shadow=1;" parent="1" edge="1">
          <mxGeometry width="50" height="50" relative="1" as="geometry">
            <mxPoint x="425" y="230" as="sourcePoint" />
            <mxPoint x="100" y="230" as="targetPoint" />
          </mxGeometry>
        </mxCell>
        <mxCell id="6NmYGi3LzHl2FKcs8JOB-21" value="" style="endArrow=classic;html=1;rounded=0;flowAnimation=1;fillColor=#60a917;strokeColor=#2D7600;shadow=1;" parent="1" edge="1">
          <mxGeometry width="50" height="50" relative="1" as="geometry">
            <mxPoint x="100" y="270" as="sourcePoint" />
            <mxPoint x="420" y="270" as="targetPoint" />
          </mxGeometry>
        </mxCell>
        <mxCell id="6NmYGi3LzHl2FKcs8JOB-22" value="" style="endArrow=classic;html=1;rounded=0;fillColor=#fa6800;strokeColor=#C73500;flowAnimation=1;shadow=1;" parent="1" edge="1">
          <mxGeometry width="50" height="50" relative="1" as="geometry">
            <mxPoint x="425" y="369" as="sourcePoint" />
            <mxPoint x="750" y="369" as="targetPoint" />
          </mxGeometry>
        </mxCell>
        <mxCell id="6NmYGi3LzHl2FKcs8JOB-24" value="" style="endArrow=classic;html=1;rounded=0;fillColor=#fa6800;strokeColor=#C73500;flowAnimation=1;shadow=1;" parent="1" edge="1">
          <mxGeometry width="50" height="50" relative="1" as="geometry">
            <mxPoint x="427.5" y="419" as="sourcePoint" />
            <mxPoint x="102.5" y="419" as="targetPoint" />
          </mxGeometry>
        </mxCell>
        <mxCell id="6NmYGi3LzHl2FKcs8JOB-25" value="" style="endArrow=classic;html=1;rounded=0;fillColor=#60a917;strokeColor=#2D7600;flowAnimation=1;shadow=1;" parent="1" edge="1">
          <mxGeometry width="50" height="50" relative="1" as="geometry">
            <mxPoint x="100" y="450" as="sourcePoint" />
            <mxPoint x="425.5" y="450" as="targetPoint" />
          </mxGeometry>
        </mxCell>
        <mxCell id="6NmYGi3LzHl2FKcs8JOB-26" value="" style="endArrow=classic;html=1;rounded=0;fillColor=#dae8fc;strokeColor=#439CE0;flowAnimation=1;shadow=1;" parent="1" edge="1">
          <mxGeometry width="50" height="50" relative="1" as="geometry">
            <mxPoint x="750" y="404.5" as="sourcePoint" />
            <mxPoint x="425" y="404.5" as="targetPoint" />
          </mxGeometry>
        </mxCell>
        <mxCell id="6NmYGi3LzHl2FKcs8JOB-27" value="" style="endArrow=classic;html=1;rounded=0;fillColor=#d5e8d4;strokeColor=#82b366;flowAnimation=1;shadow=1;" parent="1" edge="1">
          <mxGeometry width="50" height="50" relative="1" as="geometry">
            <mxPoint x="425" y="510" as="sourcePoint" />
            <mxPoint x="750" y="510" as="targetPoint" />
          </mxGeometry>
        </mxCell>
        <mxCell id="6NmYGi3LzHl2FKcs8JOB-28" value="" style="endArrow=classic;html=1;rounded=0;fillColor=#ffe6cc;strokeColor=#439CE0;flowAnimation=1;shadow=1;" parent="1" edge="1">
          <mxGeometry width="50" height="50" relative="1" as="geometry">
            <mxPoint x="750" y="549.5" as="sourcePoint" />
            <mxPoint x="425" y="549.5" as="targetPoint" />
          </mxGeometry>
        </mxCell>
        <mxCell id="6NmYGi3LzHl2FKcs8JOB-30" value="" style="endArrow=classic;html=1;rounded=0;fillColor=#fa6800;strokeColor=#C73500;flowAnimation=1;shadow=1;" parent="1" edge="1">
          <mxGeometry width="50" height="50" relative="1" as="geometry">
            <mxPoint x="425" y="600" as="sourcePoint" />
            <mxPoint x="100" y="600" as="targetPoint" />
          </mxGeometry>
        </mxCell>
        <mxCell id="6NmYGi3LzHl2FKcs8JOB-31" value="EAPoLAN (EAP over LAN)" style="text;strokeColor=none;align=center;fillColor=none;html=1;verticalAlign=middle;whiteSpace=wrap;rounded=0;fontStyle=1" parent="1" vertex="1">
          <mxGeometry x="190" y="140" width="160" height="30" as="geometry" />
        </mxCell>
        <mxCell id="6NmYGi3LzHl2FKcs8JOB-32" value="EAP-Request/Identity&amp;nbsp;" style="text;strokeColor=none;align=center;fillColor=none;html=1;verticalAlign=middle;whiteSpace=wrap;rounded=0;fontStyle=1" parent="1" vertex="1">
          <mxGeometry x="140" y="200" width="250" height="30" as="geometry" />
        </mxCell>
        <mxCell id="6NmYGi3LzHl2FKcs8JOB-34" value="&lt;span style=&quot;color: rgb(0, 0, 0); font-family: Helvetica; font-size: 12px; font-style: normal; font-variant-ligatures: normal; font-variant-caps: normal; letter-spacing: normal; orphans: 2; text-indent: 0px; text-transform: none; widows: 2; word-spacing: 0px; -webkit-text-stroke-width: 0px; white-space: normal; background-color: rgb(251, 251, 251); text-decoration-thickness: initial; text-decoration-style: initial; text-decoration-color: initial; float: none; display: inline !important;&quot;&gt;EAP-Response/Identity&amp;nbsp;&lt;/span&gt;" style="text;whiteSpace=wrap;html=1;align=center;fontStyle=1" parent="1" vertex="1">
          <mxGeometry x="125" y="240" width="280" height="20" as="geometry" />
        </mxCell>
        <mxCell id="6NmYGi3LzHl2FKcs8JOB-35" value="Radius Access Request (RADIUS)" style="text;strokeColor=none;align=center;fillColor=none;html=1;verticalAlign=middle;whiteSpace=wrap;rounded=0;fontStyle=1" parent="1" vertex="1">
          <mxGeometry x="495" y="330" width="200" height="30" as="geometry" />
        </mxCell>
        <mxCell id="6NmYGi3LzHl2FKcs8JOB-36" value="Radius Access Chanllenge (RADIUS)" style="text;strokeColor=none;align=center;fillColor=none;html=1;verticalAlign=middle;whiteSpace=wrap;rounded=0;fontStyle=1" parent="1" vertex="1">
          <mxGeometry x="480" y="370" width="230" height="30" as="geometry" />
        </mxCell>
        <mxCell id="6NmYGi3LzHl2FKcs8JOB-37" value="EAP-Request" style="text;strokeColor=none;align=center;fillColor=none;html=1;verticalAlign=middle;whiteSpace=wrap;rounded=0;fontStyle=1" parent="1" vertex="1">
          <mxGeometry x="190" y="390" width="150" height="30" as="geometry" />
        </mxCell>
        <mxCell id="6NmYGi3LzHl2FKcs8JOB-38" value="EAP-Response" style="text;strokeColor=none;align=center;fillColor=none;html=1;verticalAlign=middle;whiteSpace=wrap;rounded=0;fontStyle=1" parent="1" vertex="1">
          <mxGeometry x="190" y="420" width="150" height="30" as="geometry" />
        </mxCell>
        <mxCell id="6NmYGi3LzHl2FKcs8JOB-42" value="Radius Access-request" style="text;strokeColor=none;align=center;fillColor=none;html=1;verticalAlign=middle;whiteSpace=wrap;rounded=0;fontStyle=1;fontSize=12;" parent="1" vertex="1">
          <mxGeometry x="520" y="480" width="150" height="30" as="geometry" />
        </mxCell>
        <mxCell id="6NmYGi3LzHl2FKcs8JOB-43" value="Radius Access-Accept" style="text;strokeColor=none;align=center;fillColor=none;html=1;verticalAlign=middle;whiteSpace=wrap;rounded=0;fontStyle=1" parent="1" vertex="1">
          <mxGeometry x="485" y="520" width="230" height="30" as="geometry" />
        </mxCell>
        <mxCell id="6NmYGi3LzHl2FKcs8JOB-47" value="&lt;span style=&quot;color: rgb(0, 0, 0); font-family: Helvetica; font-size: 12px; font-style: normal; font-variant-ligatures: normal; font-variant-caps: normal; letter-spacing: normal; orphans: 2; text-align: center; text-indent: 0px; text-transform: none; widows: 2; word-spacing: 0px; -webkit-text-stroke-width: 0px; white-space: normal; background-color: rgb(251, 251, 251); text-decoration-thickness: initial; text-decoration-style: initial; text-decoration-color: initial; float: none; display: inline !important;&quot;&gt;EAP Success&lt;/span&gt;" style="text;whiteSpace=wrap;html=1;fontStyle=1" parent="1" vertex="1">
          <mxGeometry x="180" y="570" width="250" height="40" as="geometry" />
        </mxCell>
        <mxCell id="6NmYGi3LzHl2FKcs8JOB-48" value="" style="endArrow=classic;html=1;rounded=0;fillColor=#d5e8d4;strokeColor=#82b366;flowAnimation=1;shadow=1;" parent="1" edge="1">
          <mxGeometry width="50" height="50" relative="1" as="geometry">
            <mxPoint x="425" y="650" as="sourcePoint" />
            <mxPoint x="750" y="650" as="targetPoint" />
          </mxGeometry>
        </mxCell>
        <mxCell id="6NmYGi3LzHl2FKcs8JOB-49" value="" style="endArrow=classic;html=1;rounded=0;fillColor=#ffe6cc;strokeColor=#439CE0;flowAnimation=1;shadow=1;" parent="1" edge="1">
          <mxGeometry width="50" height="50" relative="1" as="geometry">
            <mxPoint x="750" y="690" as="sourcePoint" />
            <mxPoint x="425" y="690" as="targetPoint" />
          </mxGeometry>
        </mxCell>
        <mxCell id="6NmYGi3LzHl2FKcs8JOB-51" value="&lt;b&gt;Accounting Request&lt;/b&gt;" style="text;html=1;align=center;verticalAlign=middle;resizable=0;points=[];autosize=1;strokeColor=none;fillColor=none;" parent="1" vertex="1">
          <mxGeometry x="500" y="618" width="140" height="30" as="geometry" />
        </mxCell>
        <mxCell id="6NmYGi3LzHl2FKcs8JOB-56" value="Accounting Response" style="text;html=1;align=center;verticalAlign=middle;resizable=0;points=[];autosize=1;strokeColor=none;fillColor=none;" parent="1" vertex="1">
          <mxGeometry x="505" y="660" width="140" height="30" as="geometry" />
        </mxCell>
        <mxCell id="hbMADbsPhS7YppK_-RZC-1" value="" style="rounded=1;whiteSpace=wrap;html=1;fillColor=none;glass=1;shadow=1;" vertex="1" parent="1">
          <mxGeometry x="72.5" y="290" width="700" height="170" as="geometry" />
        </mxCell>
        <mxCell id="hbMADbsPhS7YppK_-RZC-5" value="" style="endArrow=classic;startArrow=classic;html=1;rounded=0;" edge="1" parent="1">
          <mxGeometry width="50" height="50" relative="1" as="geometry">
            <mxPoint x="390" y="314.5" as="sourcePoint" />
            <mxPoint x="460" y="314.5" as="targetPoint" />
          </mxGeometry>
        </mxCell>
        <mxCell id="hbMADbsPhS7YppK_-RZC-6" value="&lt;b&gt;&lt;u&gt;&lt;font face=&quot;Georgia&quot;&gt;Mutliple Access-reques/Access-chanllenge&amp;nbsp;&lt;/font&gt;&lt;/u&gt;&lt;/b&gt;" style="text;strokeColor=none;align=center;fillColor=none;html=1;verticalAlign=middle;whiteSpace=wrap;rounded=0;" vertex="1" parent="1">
          <mxGeometry x="282.5" y="290" width="280" height="30" as="geometry" />
        </mxCell>
      </root>
    </mxGraphModel>
  </diagram>
</mxfile>
